<mxfile host="65bd71144e">
    <diagram id="yfq8Um4Lh6RkvZYFpATG" name="workflow">
        <mxGraphModel dx="2588" dy="582" grid="1" gridSize="10" guides="1" tooltips="1" connect="1" arrows="1" fold="1" page="1" pageScale="1" pageWidth="850" pageHeight="1100" math="0" shadow="0">
            <root>
                <mxCell id="RgCKEBAKFtgzlylaqKfK-0"/>
                <mxCell id="RgCKEBAKFtgzlylaqKfK-1" parent="RgCKEBAKFtgzlylaqKfK-0"/>
                <mxCell id="PKVvTnGOIaKGjTeEUsdS-0" value="&lt;div style=&quot;color: rgb(0 , 0 , 0) ; background-color: rgb(255 , 255 , 255) ; font-family: &amp;#34;consolas&amp;#34; , &amp;#34;courier new&amp;#34; , monospace ; font-weight: normal ; font-size: 13px ; line-height: 18px&quot;&gt;&lt;div&gt;&lt;span style=&quot;color: #0000ff ; font-style: italic&quot;&gt;public&lt;/span&gt;&lt;span style=&quot;color: #000000&quot;&gt; &lt;/span&gt;&lt;span style=&quot;color: #0000ff ; font-style: italic&quot;&gt;class&lt;/span&gt;&lt;span style=&quot;color: #000000&quot;&gt; ComparableExDo {&lt;/span&gt;&lt;/div&gt;&lt;div&gt;&lt;span style=&quot;color: #000000&quot;&gt;&amp;nbsp; &amp;nbsp;&lt;/span&gt;&lt;span style=&quot;color: #0000ff ; font-style: italic&quot;&gt;public&lt;/span&gt;&lt;span style=&quot;color: #000000&quot;&gt; &lt;/span&gt;&lt;span style=&quot;color: #0000ff ; font-style: italic&quot;&gt;static&lt;/span&gt;&lt;span style=&quot;color: #000000&quot;&gt; &lt;/span&gt;&lt;span style=&quot;color: #0000ff&quot;&gt;void&lt;/span&gt;&lt;span style=&quot;color: #000000&quot;&gt; main (&lt;/span&gt;&lt;span style=&quot;color: #0000ff ; font-style: italic&quot;&gt;String&lt;/span&gt;&lt;span style=&quot;color: #000000&quot;&gt; [] args){&lt;/span&gt;&lt;/div&gt;&lt;div&gt;&lt;span style=&quot;color: #000000&quot;&gt;&amp;nbsp; &amp;nbsp;}&lt;/span&gt;&lt;/div&gt;&lt;div&gt;&lt;span style=&quot;color: #000000&quot;&gt;}&lt;/span&gt;&lt;/div&gt;&lt;/div&gt;" style="text;whiteSpace=wrap;html=1;" parent="RgCKEBAKFtgzlylaqKfK-1" vertex="1">
                    <mxGeometry x="320" y="70" width="340" height="90" as="geometry"/>
                </mxCell>
                <mxCell id="PKVvTnGOIaKGjTeEUsdS-2" value="" style="sketch=0;html=1;aspect=fixed;strokeColor=none;shadow=0;align=center;verticalAlign=top;fillColor=#3B8DF1;shape=mxgraph.gcp2.play_start" parent="RgCKEBAKFtgzlylaqKfK-1" vertex="1">
                    <mxGeometry x="170" y="40" width="100" height="100" as="geometry"/>
                </mxCell>
                <mxCell id="PKVvTnGOIaKGjTeEUsdS-9" style="edgeStyle=orthogonalEdgeStyle;rounded=0;orthogonalLoop=1;jettySize=auto;html=1;entryX=0.409;entryY=-0.063;entryDx=0;entryDy=0;entryPerimeter=0;" parent="RgCKEBAKFtgzlylaqKfK-1" source="PKVvTnGOIaKGjTeEUsdS-3" target="PKVvTnGOIaKGjTeEUsdS-6" edge="1">
                    <mxGeometry relative="1" as="geometry"/>
                </mxCell>
                <mxCell id="PKVvTnGOIaKGjTeEUsdS-3" value="import { enableProdMode } from '@angular/core';&#13;&#10;import { platformBrowserDynamic } from '@angular/platform-browser-dynamic';&#13;&#10;&#13;&#10;import { AppModule } from './app/app.module';&#13;&#10;import { environment } from './environments/environment';&#13;&#10;&#13;&#10;if (environment.production) {&#13;&#10;  enableProdMode();&#13;&#10;}&#13;&#10;&#13;&#10;platformBrowserDynamic().bootstrapModule(AppModule)&#13;&#10;  .catch(err =&gt; console.error(err));" style="text;whiteSpace=wrap;html=1;fillColor=#dae8fc;strokeColor=#6c8ebf;" parent="RgCKEBAKFtgzlylaqKfK-1" vertex="1">
                    <mxGeometry x="180" y="170" width="440" height="180" as="geometry"/>
                </mxCell>
                <mxCell id="PKVvTnGOIaKGjTeEUsdS-26" style="edgeStyle=orthogonalEdgeStyle;rounded=0;orthogonalLoop=1;jettySize=auto;html=1;entryX=1.004;entryY=0.398;entryDx=0;entryDy=0;entryPerimeter=0;" parent="RgCKEBAKFtgzlylaqKfK-1" source="PKVvTnGOIaKGjTeEUsdS-6" target="PKVvTnGOIaKGjTeEUsdS-14" edge="1">
                    <mxGeometry relative="1" as="geometry"/>
                </mxCell>
                <mxCell id="PKVvTnGOIaKGjTeEUsdS-6" value="AppModule" style="shape=module;align=left;spacingLeft=20;align=center;verticalAlign=top;fillColor=#60a917;strokeColor=#2D7600;fontColor=#ffffff;" parent="RgCKEBAKFtgzlylaqKfK-1" vertex="1">
                    <mxGeometry x="40" y="390" width="130" height="60" as="geometry"/>
                </mxCell>
                <mxCell id="PKVvTnGOIaKGjTeEUsdS-8" value="AppRoutingModule" style="shape=module;align=left;spacingLeft=20;align=center;verticalAlign=top;fillColor=#dae8fc;strokeColor=#6c8ebf;" parent="RgCKEBAKFtgzlylaqKfK-1" vertex="1">
                    <mxGeometry x="-50" y="690" width="160" height="60" as="geometry"/>
                </mxCell>
                <mxCell id="PKVvTnGOIaKGjTeEUsdS-10" value="main.ts" style="text;html=1;align=center;verticalAlign=middle;resizable=0;points=[];autosize=1;fontStyle=1;fillColor=#f8cecc;strokeColor=#b85450;" parent="RgCKEBAKFtgzlylaqKfK-1" vertex="1">
                    <mxGeometry x="20" y="300" width="60" height="20" as="geometry"/>
                </mxCell>
                <mxCell id="PKVvTnGOIaKGjTeEUsdS-27" style="edgeStyle=orthogonalEdgeStyle;rounded=0;orthogonalLoop=1;jettySize=auto;html=1;" parent="RgCKEBAKFtgzlylaqKfK-1" source="PKVvTnGOIaKGjTeEUsdS-14" target="PKVvTnGOIaKGjTeEUsdS-18" edge="1">
                    <mxGeometry relative="1" as="geometry"/>
                </mxCell>
                <mxCell id="PKVvTnGOIaKGjTeEUsdS-14" value="&lt;div style=&quot;color: rgb(0 , 0 , 0) ; font-family: &amp;#34;consolas&amp;#34; , &amp;#34;courier new&amp;#34; , monospace ; font-weight: normal ; font-size: 13px ; line-height: 18px&quot;&gt;&lt;div&gt;&lt;span style=&quot;background-color: rgb(153 , 204 , 255)&quot;&gt;&lt;span style=&quot;color: rgb(0 , 0 , 255) ; font-style: italic&quot;&gt;import&lt;/span&gt;&lt;span style=&quot;color: rgb(0 , 0 , 0)&quot;&gt; { NgModule } &lt;/span&gt;&lt;span style=&quot;color: rgb(0 , 0 , 255) ; font-style: italic&quot;&gt;from&lt;/span&gt;&lt;span style=&quot;color: rgb(0 , 0 , 0)&quot;&gt; &lt;/span&gt;&lt;span style=&quot;color: rgb(163 , 21 , 21)&quot;&gt;'@angular/core'&lt;/span&gt;&lt;span style=&quot;color: rgb(0 , 0 , 0)&quot;&gt;;&lt;/span&gt;&lt;/span&gt;&lt;/div&gt;&lt;div&gt;&lt;span style=&quot;background-color: rgb(153 , 204 , 255)&quot;&gt;&lt;span style=&quot;color: #0000ff ; font-style: italic&quot;&gt;import&lt;/span&gt;&lt;span style=&quot;color: #000000&quot;&gt; { BrowserModule } &lt;/span&gt;&lt;span style=&quot;color: #0000ff ; font-style: italic&quot;&gt;from&lt;/span&gt;&lt;span style=&quot;color: #000000&quot;&gt; &lt;/span&gt;&lt;span style=&quot;color: #a31515&quot;&gt;'@angular/platform-browser'&lt;/span&gt;&lt;span style=&quot;color: #000000&quot;&gt;;&lt;/span&gt;&lt;/span&gt;&lt;/div&gt;&lt;div&gt;&lt;span style=&quot;background-color: rgb(153 , 204 , 255)&quot;&gt;&lt;span style=&quot;color: #0000ff ; font-style: italic&quot;&gt;import&lt;/span&gt;&lt;span style=&quot;color: #000000&quot;&gt; {HttpClientModule} &lt;/span&gt;&lt;span style=&quot;color: #0000ff ; font-style: italic&quot;&gt;from&lt;/span&gt;&lt;span style=&quot;color: #000000&quot;&gt; &lt;/span&gt;&lt;span style=&quot;color: #a31515&quot;&gt;'@angular/common/http'&lt;/span&gt;&lt;span style=&quot;color: #000000&quot;&gt;;&lt;/span&gt;&lt;/span&gt;&lt;/div&gt;&lt;span style=&quot;background-color: rgb(153 , 204 , 255)&quot;&gt;&lt;br&gt;&lt;/span&gt;&lt;div&gt;&lt;span style=&quot;background-color: rgb(153 , 204 , 255)&quot;&gt;&lt;span style=&quot;color: #0000ff ; font-style: italic&quot;&gt;import&lt;/span&gt;&lt;span style=&quot;color: #000000&quot;&gt; { AppComponent } &lt;/span&gt;&lt;span style=&quot;color: #0000ff ; font-style: italic&quot;&gt;from&lt;/span&gt;&lt;span style=&quot;color: #000000&quot;&gt; &lt;/span&gt;&lt;span style=&quot;color: #a31515&quot;&gt;'./app.component'&lt;/span&gt;&lt;span style=&quot;color: #000000&quot;&gt;;&lt;/span&gt;&lt;/span&gt;&lt;/div&gt;&lt;span style=&quot;background-color: rgb(153 , 204 , 255)&quot;&gt;&lt;br&gt;&lt;/span&gt;&lt;div&gt;&lt;span style=&quot;background-color: rgb(153 , 204 , 255)&quot;&gt;&lt;span style=&quot;color: #0000ff ; font-style: italic&quot;&gt;import&lt;/span&gt;&lt;span style=&quot;color: #000000&quot;&gt; { ReactiveFormsModule } &lt;/span&gt;&lt;span style=&quot;color: #0000ff ; font-style: italic&quot;&gt;from&lt;/span&gt;&lt;span style=&quot;color: #000000&quot;&gt; &lt;/span&gt;&lt;span style=&quot;color: #a31515&quot;&gt;'@angular/forms'&lt;/span&gt;&lt;span style=&quot;color: #000000&quot;&gt;;&lt;/span&gt;&lt;/span&gt;&lt;/div&gt;&lt;div&gt;&lt;span style=&quot;background-color: rgb(153 , 204 , 255)&quot;&gt;&lt;span style=&quot;color: #0000ff ; font-style: italic&quot;&gt;import&lt;/span&gt;&lt;span style=&quot;color: #000000&quot;&gt; { AddEmpComponent } &lt;/span&gt;&lt;span style=&quot;color: #0000ff ; font-style: italic&quot;&gt;from&lt;/span&gt;&lt;span style=&quot;color: #000000&quot;&gt; &lt;/span&gt;&lt;span style=&quot;color: #a31515&quot;&gt;'./add-emp/add-emp.component'&lt;/span&gt;&lt;span style=&quot;color: #000000&quot;&gt;;&lt;/span&gt;&lt;/span&gt;&lt;/div&gt;&lt;div&gt;&lt;span style=&quot;background-color: rgb(153 , 204 , 255)&quot;&gt;&lt;span style=&quot;color: #0000ff ; font-style: italic&quot;&gt;import&lt;/span&gt;&lt;span style=&quot;color: #000000&quot;&gt; { ListEmpComponent } &lt;/span&gt;&lt;span style=&quot;color: #0000ff ; font-style: italic&quot;&gt;from&lt;/span&gt;&lt;span style=&quot;color: #000000&quot;&gt; &lt;/span&gt;&lt;span style=&quot;color: #a31515&quot;&gt;'./list-emp/list-emp.component'&lt;/span&gt;&lt;span style=&quot;color: #000000&quot;&gt;;&lt;/span&gt;&lt;/span&gt;&lt;/div&gt;&lt;div&gt;&lt;span style=&quot;background-color: rgb(153 , 204 , 255)&quot;&gt;&lt;span style=&quot;color: #0000ff ; font-style: italic&quot;&gt;import&lt;/span&gt;&lt;span style=&quot;color: #000000&quot;&gt; { EditEmpComponent } &lt;/span&gt;&lt;span style=&quot;color: #0000ff ; font-style: italic&quot;&gt;from&lt;/span&gt;&lt;span style=&quot;color: #000000&quot;&gt; &lt;/span&gt;&lt;span style=&quot;color: #a31515&quot;&gt;'./edit-emp/edit-emp.component'&lt;/span&gt;&lt;span style=&quot;color: #000000&quot;&gt;;&lt;/span&gt;&lt;/span&gt;&lt;/div&gt;&lt;div&gt;&lt;span style=&quot;background-color: rgb(153 , 204 , 255)&quot;&gt;&lt;span style=&quot;color: #0000ff ; font-style: italic&quot;&gt;import&lt;/span&gt;&lt;span style=&quot;color: #000000&quot;&gt; { AppRoutingModule } &lt;/span&gt;&lt;span style=&quot;color: #0000ff ; font-style: italic&quot;&gt;from&lt;/span&gt;&lt;span style=&quot;color: #000000&quot;&gt; &lt;/span&gt;&lt;span style=&quot;color: #a31515&quot;&gt;'./app-routing.module'&lt;/span&gt;&lt;span style=&quot;color: #000000&quot;&gt;;&lt;/span&gt;&lt;/span&gt;&lt;/div&gt;&lt;span style=&quot;background-color: rgb(153 , 204 , 255)&quot;&gt;&lt;br&gt;&lt;/span&gt;&lt;div&gt;&lt;span style=&quot;color: rgb(0 , 0 , 0) ; background-color: rgb(153 , 204 , 255)&quot;&gt;@NgModule({&lt;/span&gt;&lt;/div&gt;&lt;div&gt;&lt;span style=&quot;color: rgb(0 , 0 , 0) ; background-color: rgb(153 , 204 , 255)&quot;&gt;&amp;nbsp; declarations: [&lt;/span&gt;&lt;/div&gt;&lt;div&gt;&lt;span style=&quot;color: rgb(0 , 0 , 0) ; background-color: rgb(153 , 204 , 255)&quot;&gt;&amp;nbsp; &amp;nbsp; AppComponent,&lt;/span&gt;&lt;/div&gt;&lt;div&gt;&lt;span style=&quot;color: rgb(0 , 0 , 0) ; background-color: rgb(153 , 204 , 255)&quot;&gt;&amp;nbsp; &amp;nbsp; AddEmpComponent,&lt;/span&gt;&lt;/div&gt;&lt;div&gt;&lt;span style=&quot;color: rgb(0 , 0 , 0) ; background-color: rgb(153 , 204 , 255)&quot;&gt;&amp;nbsp; &amp;nbsp; ListEmpComponent,&lt;/span&gt;&lt;/div&gt;&lt;div&gt;&lt;span style=&quot;color: rgb(0 , 0 , 0) ; background-color: rgb(153 , 204 , 255)&quot;&gt;&amp;nbsp; &amp;nbsp; EditEmpComponent,&lt;/span&gt;&lt;/div&gt;&lt;div&gt;&lt;span style=&quot;color: rgb(0 , 0 , 0) ; background-color: rgb(153 , 204 , 255)&quot;&gt;&amp;nbsp; ],&lt;/span&gt;&lt;/div&gt;&lt;div&gt;&lt;span style=&quot;color: rgb(0 , 0 , 0) ; background-color: rgb(153 , 204 , 255)&quot;&gt;&amp;nbsp; imports: [&lt;/span&gt;&lt;/div&gt;&lt;div&gt;&lt;span style=&quot;color: rgb(0 , 0 , 0) ; background-color: rgb(153 , 204 , 255)&quot;&gt;&amp;nbsp; &amp;nbsp; BrowserModule,&lt;/span&gt;&lt;/div&gt;&lt;div&gt;&lt;span style=&quot;color: rgb(0 , 0 , 0) ; background-color: rgb(153 , 204 , 255)&quot;&gt;&amp;nbsp; &amp;nbsp; HttpClientModule,&lt;/span&gt;&lt;/div&gt;&lt;div&gt;&lt;span style=&quot;color: rgb(0 , 0 , 0) ; background-color: rgb(153 , 204 , 255)&quot;&gt;&amp;nbsp; &amp;nbsp; ReactiveFormsModule,&lt;/span&gt;&lt;/div&gt;&lt;div&gt;&lt;span style=&quot;color: rgb(0 , 0 , 0) ; background-color: rgb(153 , 204 , 255)&quot;&gt;&amp;nbsp; &amp;nbsp; AppRoutingModule&lt;/span&gt;&lt;/div&gt;&lt;div&gt;&lt;span style=&quot;color: rgb(0 , 0 , 0) ; background-color: rgb(153 , 204 , 255)&quot;&gt;&amp;nbsp; ],&lt;/span&gt;&lt;/div&gt;&lt;div&gt;&lt;span style=&quot;color: rgb(0 , 0 , 0) ; background-color: rgb(153 , 204 , 255)&quot;&gt;&amp;nbsp; providers: [],&lt;/span&gt;&lt;/div&gt;&lt;div&gt;&lt;span style=&quot;color: rgb(0 , 0 , 0) ; background-color: rgb(153 , 204 , 255)&quot;&gt;&amp;nbsp; bootstrap: [AppComponent]&lt;/span&gt;&lt;/div&gt;&lt;div&gt;&lt;span style=&quot;color: rgb(0 , 0 , 0) ; background-color: rgb(153 , 204 , 255)&quot;&gt;})&lt;/span&gt;&lt;/div&gt;&lt;div&gt;&lt;span style=&quot;background-color: rgb(153 , 204 , 255)&quot;&gt;&lt;span style=&quot;color: rgb(0 , 0 , 255) ; font-style: italic&quot;&gt;export&lt;/span&gt;&lt;span style=&quot;color: rgb(0 , 0 , 0)&quot;&gt; &lt;/span&gt;&lt;span style=&quot;color: rgb(0 , 0 , 255) ; font-style: italic&quot;&gt;class&lt;/span&gt;&lt;span style=&quot;color: rgb(0 , 0 , 0)&quot;&gt; AppModule { }&lt;/span&gt;&lt;/span&gt;&lt;/div&gt;&lt;/div&gt;" style="text;whiteSpace=wrap;html=1;fillColor=#dae8fc;strokeColor=#6c8ebf;" parent="RgCKEBAKFtgzlylaqKfK-1" vertex="1">
                    <mxGeometry x="-570" y="210" width="490" height="530" as="geometry"/>
                </mxCell>
                <mxCell id="PKVvTnGOIaKGjTeEUsdS-15" value="BrowserModule" style="shape=module;align=left;spacingLeft=20;align=center;verticalAlign=top;fillColor=#d5e8d4;strokeColor=#82b366;" parent="RgCKEBAKFtgzlylaqKfK-1" vertex="1">
                    <mxGeometry x="-50" y="470" width="160" height="60" as="geometry"/>
                </mxCell>
                <mxCell id="PKVvTnGOIaKGjTeEUsdS-16" value="    ReactiveFormsModule,&#10;" style="shape=module;align=left;spacingLeft=20;align=center;verticalAlign=top;fillColor=#d5e8d4;strokeColor=#82b366;" parent="RgCKEBAKFtgzlylaqKfK-1" vertex="1">
                    <mxGeometry x="-50" y="620" width="160" height="60" as="geometry"/>
                </mxCell>
                <mxCell id="PKVvTnGOIaKGjTeEUsdS-17" value="HttpClientModule" style="shape=module;align=left;spacingLeft=20;align=center;verticalAlign=top;fillColor=#d5e8d4;strokeColor=#82b366;" parent="RgCKEBAKFtgzlylaqKfK-1" vertex="1">
                    <mxGeometry x="-50" y="550" width="160" height="60" as="geometry"/>
                </mxCell>
                <mxCell id="PKVvTnGOIaKGjTeEUsdS-31" value="" style="edgeStyle=orthogonalEdgeStyle;rounded=0;orthogonalLoop=1;jettySize=auto;html=1;" parent="RgCKEBAKFtgzlylaqKfK-1" source="PKVvTnGOIaKGjTeEUsdS-18" target="PKVvTnGOIaKGjTeEUsdS-30" edge="1">
                    <mxGeometry relative="1" as="geometry"/>
                </mxCell>
                <mxCell id="PKVvTnGOIaKGjTeEUsdS-18" value="AppComponent&lt;br&gt;" style="html=1;dropTarget=0;fillColor=#1ba1e2;strokeColor=#006EAF;fontColor=#ffffff;" parent="RgCKEBAKFtgzlylaqKfK-1" vertex="1">
                    <mxGeometry x="-565" y="810" width="150" height="60" as="geometry"/>
                </mxCell>
                <mxCell id="PKVvTnGOIaKGjTeEUsdS-19" value="" style="shape=module;jettyWidth=8;jettyHeight=4;" parent="PKVvTnGOIaKGjTeEUsdS-18" vertex="1">
                    <mxGeometry x="1" width="20" height="20" relative="1" as="geometry">
                        <mxPoint x="-27" y="7" as="offset"/>
                    </mxGeometry>
                </mxCell>
                <mxCell id="PKVvTnGOIaKGjTeEUsdS-20" value="AddEmpComponent" style="html=1;dropTarget=0;fillColor=#e3c800;strokeColor=#B09500;fontColor=#000000;" parent="RgCKEBAKFtgzlylaqKfK-1" vertex="1">
                    <mxGeometry x="-395" y="890" width="150" height="60" as="geometry"/>
                </mxCell>
                <mxCell id="PKVvTnGOIaKGjTeEUsdS-21" value="" style="shape=module;jettyWidth=8;jettyHeight=4;" parent="PKVvTnGOIaKGjTeEUsdS-20" vertex="1">
                    <mxGeometry x="1" width="20" height="20" relative="1" as="geometry">
                        <mxPoint x="-27" y="7" as="offset"/>
                    </mxGeometry>
                </mxCell>
                <mxCell id="PKVvTnGOIaKGjTeEUsdS-22" value="EditEmpComponent" style="html=1;dropTarget=0;fillColor=#e3c800;strokeColor=#B09500;fontColor=#000000;" parent="RgCKEBAKFtgzlylaqKfK-1" vertex="1">
                    <mxGeometry x="-235" y="890" width="150" height="60" as="geometry"/>
                </mxCell>
                <mxCell id="PKVvTnGOIaKGjTeEUsdS-23" value="" style="shape=module;jettyWidth=8;jettyHeight=4;" parent="PKVvTnGOIaKGjTeEUsdS-22" vertex="1">
                    <mxGeometry x="1" width="20" height="20" relative="1" as="geometry">
                        <mxPoint x="-27" y="7" as="offset"/>
                    </mxGeometry>
                </mxCell>
                <mxCell id="PKVvTnGOIaKGjTeEUsdS-37" style="edgeStyle=orthogonalEdgeStyle;rounded=0;orthogonalLoop=1;jettySize=auto;html=1;" parent="RgCKEBAKFtgzlylaqKfK-1" source="PKVvTnGOIaKGjTeEUsdS-24" target="PKVvTnGOIaKGjTeEUsdS-30" edge="1">
                    <mxGeometry relative="1" as="geometry"/>
                </mxCell>
                <mxCell id="PKVvTnGOIaKGjTeEUsdS-24" value="ListEmpComponent" style="html=1;dropTarget=0;fillColor=#e3c800;strokeColor=#B09500;fontColor=#000000;" parent="RgCKEBAKFtgzlylaqKfK-1" vertex="1">
                    <mxGeometry x="-565" y="890" width="150" height="60" as="geometry"/>
                </mxCell>
                <mxCell id="PKVvTnGOIaKGjTeEUsdS-25" value="" style="shape=module;jettyWidth=8;jettyHeight=4;" parent="PKVvTnGOIaKGjTeEUsdS-24" vertex="1">
                    <mxGeometry x="1" width="20" height="20" relative="1" as="geometry">
                        <mxPoint x="-27" y="7" as="offset"/>
                    </mxGeometry>
                </mxCell>
                <mxCell id="PKVvTnGOIaKGjTeEUsdS-28" value="" style="shape=image;verticalLabelPosition=bottom;labelBackgroundColor=#ffffff;verticalAlign=top;aspect=fixed;imageAspect=0;image=https://i.stack.imgur.com/AUsyx.png;" parent="RgCKEBAKFtgzlylaqKfK-1" vertex="1">
                    <mxGeometry x="-1090" y="520" width="490" height="276.1" as="geometry"/>
                </mxCell>
                <mxCell id="PKVvTnGOIaKGjTeEUsdS-30" value="&#10;&#10;&lt;div style=&quot;color: rgb(0, 0, 0); background-color: rgb(255, 255, 255); font-family: consolas, &amp;quot;courier new&amp;quot;, monospace; font-weight: normal; font-size: 13px; line-height: 18px;&quot;&gt;&lt;div&gt;&lt;span style=&quot;color: #800000&quot;&gt;&amp;lt;router-outlet&amp;gt;&amp;lt;/router-outlet&amp;gt;&lt;/span&gt;&lt;/div&gt;&lt;/div&gt;&#10;&#10;" style="whiteSpace=wrap;html=1;fontColor=#ffffff;strokeColor=#006EAF;fillColor=#1ba1e2;" parent="RgCKEBAKFtgzlylaqKfK-1" vertex="1">
                    <mxGeometry x="-760" y="810" width="120" height="60" as="geometry"/>
                </mxCell>
                <mxCell id="PKVvTnGOIaKGjTeEUsdS-35" style="edgeStyle=orthogonalEdgeStyle;rounded=0;orthogonalLoop=1;jettySize=auto;html=1;" parent="RgCKEBAKFtgzlylaqKfK-1" source="PKVvTnGOIaKGjTeEUsdS-32" target="PKVvTnGOIaKGjTeEUsdS-30" edge="1">
                    <mxGeometry relative="1" as="geometry">
                        <Array as="points">
                            <mxPoint x="-720" y="1015"/>
                        </Array>
                    </mxGeometry>
                </mxCell>
                <mxCell id="PKVvTnGOIaKGjTeEUsdS-36" style="edgeStyle=orthogonalEdgeStyle;rounded=0;orthogonalLoop=1;jettySize=auto;html=1;entryX=0.423;entryY=1.023;entryDx=0;entryDy=0;entryPerimeter=0;" parent="RgCKEBAKFtgzlylaqKfK-1" source="PKVvTnGOIaKGjTeEUsdS-32" target="PKVvTnGOIaKGjTeEUsdS-24" edge="1">
                    <mxGeometry relative="1" as="geometry">
                        <Array as="points">
                            <mxPoint x="-207" y="1015"/>
                            <mxPoint x="-207" y="990"/>
                            <mxPoint x="-501" y="990"/>
                        </Array>
                    </mxGeometry>
                </mxCell>
                <mxCell id="PKVvTnGOIaKGjTeEUsdS-32" value="&lt;div style=&quot;color: rgb(0 , 0 , 0) ; font-family: &amp;#34;consolas&amp;#34; , &amp;#34;courier new&amp;#34; , monospace ; font-weight: normal ; font-size: 13px ; line-height: 18px&quot;&gt;&lt;div&gt;&lt;span style=&quot;color: rgb(0 , 128 , 0) ; font-style: italic ; background-color: rgb(229 , 204 , 255)&quot;&gt;// import RouterModule / in-app navigation among views defined in an application&lt;/span&gt;&lt;/div&gt;&lt;div&gt;&lt;span style=&quot;color: rgb(0 , 128 , 0) ; font-style: italic ; background-color: rgb(229 , 204 , 255)&quot;&gt;// import Route / &amp;nbsp;a route configuration for the Router service. &lt;/span&gt;&lt;/div&gt;&lt;div&gt;&lt;span style=&quot;background-color: rgb(229 , 204 , 255)&quot;&gt;&lt;span style=&quot;color: #0000ff ; font-style: italic&quot;&gt;import&lt;/span&gt;&lt;span style=&quot;color: #000000&quot;&gt; { CommonModule } &lt;/span&gt;&lt;span style=&quot;color: #0000ff ; font-style: italic&quot;&gt;from&lt;/span&gt;&lt;span style=&quot;color: #000000&quot;&gt; &lt;/span&gt;&lt;span style=&quot;color: #a31515&quot;&gt;&quot;@angular/common&quot;&lt;/span&gt;&lt;span style=&quot;color: #000000&quot;&gt;;&lt;/span&gt;&lt;/span&gt;&lt;/div&gt;&lt;div&gt;&lt;span style=&quot;background-color: rgb(229 , 204 , 255)&quot;&gt;&lt;span style=&quot;color: #0000ff ; font-style: italic&quot;&gt;import&lt;/span&gt;&lt;span style=&quot;color: #000000&quot;&gt; { NgModule } &lt;/span&gt;&lt;span style=&quot;color: #0000ff ; font-style: italic&quot;&gt;from&lt;/span&gt;&lt;span style=&quot;color: #000000&quot;&gt; &lt;/span&gt;&lt;span style=&quot;color: #a31515&quot;&gt;&quot;@angular/core&quot;&lt;/span&gt;&lt;span style=&quot;color: #000000&quot;&gt;;&lt;/span&gt;&lt;/span&gt;&lt;/div&gt;&lt;div&gt;&lt;span style=&quot;background-color: rgb(229 , 204 , 255)&quot;&gt;&lt;span style=&quot;color: #0000ff ; font-style: italic&quot;&gt;import&lt;/span&gt;&lt;span style=&quot;color: #000000&quot;&gt; { RouterModule, Routes } &lt;/span&gt;&lt;span style=&quot;color: #0000ff ; font-style: italic&quot;&gt;from&lt;/span&gt;&lt;span style=&quot;color: #000000&quot;&gt; &lt;/span&gt;&lt;span style=&quot;color: #a31515&quot;&gt;&quot;@angular/router&quot;&lt;/span&gt;&lt;span style=&quot;color: #000000&quot;&gt;;&lt;/span&gt;&lt;/span&gt;&lt;/div&gt;&lt;div&gt;&lt;span style=&quot;background-color: rgb(229 , 204 , 255)&quot;&gt;&lt;span style=&quot;color: #0000ff ; font-style: italic&quot;&gt;import&lt;/span&gt;&lt;span style=&quot;color: #000000&quot;&gt; { AddEmpComponent } &lt;/span&gt;&lt;span style=&quot;color: #0000ff ; font-style: italic&quot;&gt;from&lt;/span&gt;&lt;span style=&quot;color: #000000&quot;&gt; &lt;/span&gt;&lt;span style=&quot;color: #a31515&quot;&gt;&quot;./add-emp/add-emp.component&quot;&lt;/span&gt;&lt;span style=&quot;color: #000000&quot;&gt;;&lt;/span&gt;&lt;/span&gt;&lt;/div&gt;&lt;div&gt;&lt;span style=&quot;background-color: rgb(229 , 204 , 255)&quot;&gt;&lt;span style=&quot;color: #0000ff ; font-style: italic&quot;&gt;import&lt;/span&gt;&lt;span style=&quot;color: #000000&quot;&gt; { EditEmpComponent } &lt;/span&gt;&lt;span style=&quot;color: #0000ff ; font-style: italic&quot;&gt;from&lt;/span&gt;&lt;span style=&quot;color: #000000&quot;&gt; &lt;/span&gt;&lt;span style=&quot;color: #a31515&quot;&gt;&quot;./edit-emp/edit-emp.component&quot;&lt;/span&gt;&lt;span style=&quot;color: #000000&quot;&gt;;&lt;/span&gt;&lt;/span&gt;&lt;/div&gt;&lt;div&gt;&lt;span style=&quot;background-color: rgb(229 , 204 , 255)&quot;&gt;&lt;span style=&quot;color: #0000ff ; font-style: italic&quot;&gt;import&lt;/span&gt;&lt;span style=&quot;color: #000000&quot;&gt; { ListEmpComponent } &lt;/span&gt;&lt;span style=&quot;color: #0000ff ; font-style: italic&quot;&gt;from&lt;/span&gt;&lt;span style=&quot;color: #000000&quot;&gt; &lt;/span&gt;&lt;span style=&quot;color: #a31515&quot;&gt;&quot;./list-emp/list-emp.component&quot;&lt;/span&gt;&lt;span style=&quot;color: #000000&quot;&gt;;&lt;/span&gt;&lt;/span&gt;&lt;/div&gt;&lt;span style=&quot;background-color: rgb(229 , 204 , 255)&quot;&gt;&lt;br&gt;&lt;/span&gt;&lt;div&gt;&lt;span style=&quot;background-color: rgb(229 , 204 , 255)&quot;&gt;&lt;span style=&quot;color: #0000ff ; font-style: italic&quot;&gt;export&lt;/span&gt;&lt;span style=&quot;color: #000000&quot;&gt; &lt;/span&gt;&lt;span style=&quot;color: #0000ff ; font-style: italic&quot;&gt;const&lt;/span&gt;&lt;span style=&quot;color: #000000&quot;&gt; routes : Routes = [&lt;/span&gt;&lt;/span&gt;&lt;/div&gt;&lt;div&gt;&lt;span style=&quot;background-color: rgb(229 , 204 , 255)&quot;&gt;&lt;span style=&quot;color: #000000&quot;&gt;&amp;nbsp; &amp;nbsp;{path:&lt;/span&gt;&lt;span style=&quot;color: #a31515&quot;&gt;''&lt;/span&gt;&lt;span style=&quot;color: #000000&quot;&gt;, component:ListEmpComponent},&lt;/span&gt;&lt;/span&gt;&lt;/div&gt;&lt;div&gt;&lt;span style=&quot;background-color: rgb(229 , 204 , 255)&quot;&gt;&lt;span style=&quot;color: #000000&quot;&gt;&amp;nbsp; &amp;nbsp;{path:&lt;/span&gt;&lt;span style=&quot;color: #a31515&quot;&gt;'list-emp'&lt;/span&gt;&lt;span style=&quot;color: #000000&quot;&gt;, component:ListEmpComponent},&lt;/span&gt;&lt;/span&gt;&lt;/div&gt;&lt;div&gt;&lt;span style=&quot;background-color: rgb(229 , 204 , 255)&quot;&gt;&lt;span style=&quot;color: #000000&quot;&gt;&amp;nbsp; &amp;nbsp;{path:&lt;/span&gt;&lt;span style=&quot;color: #a31515&quot;&gt;'add-emp'&lt;/span&gt;&lt;span style=&quot;color: #000000&quot;&gt;, component:AddEmpComponent},&lt;/span&gt;&lt;/span&gt;&lt;/div&gt;&lt;div&gt;&lt;span style=&quot;background-color: rgb(229 , 204 , 255)&quot;&gt;&lt;span style=&quot;color: #000000&quot;&gt;&amp;nbsp; &amp;nbsp;{path:&lt;/span&gt;&lt;span style=&quot;color: #a31515&quot;&gt;'edit-emp'&lt;/span&gt;&lt;span style=&quot;color: #000000&quot;&gt;, component:EditEmpComponent},&lt;/span&gt;&lt;/span&gt;&lt;/div&gt;&lt;div&gt;&lt;span style=&quot;background-color: rgb(229 , 204 , 255)&quot;&gt;&lt;span style=&quot;color: #000000&quot;&gt;&amp;nbsp; &amp;nbsp;{path:&lt;/span&gt;&lt;span style=&quot;color: #a31515&quot;&gt;'**'&lt;/span&gt;&lt;span style=&quot;color: #000000&quot;&gt;, component:ListEmpComponent},&lt;/span&gt;&lt;/span&gt;&lt;/div&gt;&lt;div&gt;&lt;span style=&quot;color: rgb(0 , 0 , 0) ; background-color: rgb(229 , 204 , 255)&quot;&gt;]&lt;/span&gt;&lt;/div&gt;&lt;span style=&quot;background-color: rgb(229 , 204 , 255)&quot;&gt;&lt;br&gt;&lt;/span&gt;&lt;div&gt;&lt;span style=&quot;color: rgb(0 , 0 , 0) ; background-color: rgb(229 , 204 , 255)&quot;&gt;@NgModule({&lt;/span&gt;&lt;/div&gt;&lt;div&gt;&lt;span style=&quot;color: rgb(0 , 0 , 0) ; background-color: rgb(229 , 204 , 255)&quot;&gt;&amp;nbsp; &amp;nbsp;imports : [CommonModule,RouterModule.forRoot(routes)],&lt;/span&gt;&lt;/div&gt;&lt;div&gt;&lt;span style=&quot;color: rgb(0 , 0 , 0) ; background-color: rgb(229 , 204 , 255)&quot;&gt;&amp;nbsp; &amp;nbsp;exports : [RouterModule],&lt;/span&gt;&lt;/div&gt;&lt;div&gt;&lt;span style=&quot;color: rgb(0 , 0 , 0) ; background-color: rgb(229 , 204 , 255)&quot;&gt;&amp;nbsp; &amp;nbsp;declarations : []&lt;/span&gt;&lt;/div&gt;&lt;div&gt;&lt;span style=&quot;color: rgb(0 , 0 , 0) ; background-color: rgb(229 , 204 , 255)&quot;&gt;})&lt;/span&gt;&lt;/div&gt;&lt;div&gt;&lt;span style=&quot;background-color: rgb(229 , 204 , 255)&quot;&gt;&lt;span style=&quot;color: #0000ff ; font-style: italic&quot;&gt;export&lt;/span&gt;&lt;span style=&quot;color: #000000&quot;&gt; &lt;/span&gt;&lt;span style=&quot;color: #0000ff ; font-style: italic&quot;&gt;class&lt;/span&gt;&lt;span style=&quot;color: #000000&quot;&gt; AppRoutingModule {&lt;/span&gt;&lt;/span&gt;&lt;/div&gt;&lt;span style=&quot;background-color: rgb(229 , 204 , 255)&quot;&gt;&lt;br&gt;&lt;/span&gt;&lt;div&gt;&lt;span style=&quot;color: rgb(0 , 0 , 0) ; background-color: rgb(229 , 204 , 255)&quot;&gt;}&lt;/span&gt;&lt;/div&gt;&lt;/div&gt;" style="text;whiteSpace=wrap;html=1;fillColor=#d0cee2;strokeColor=#56517e;" parent="RgCKEBAKFtgzlylaqKfK-1" vertex="1">
                    <mxGeometry y="780" width="550" height="470" as="geometry"/>
                </mxCell>
                <mxCell id="PKVvTnGOIaKGjTeEUsdS-34" style="edgeStyle=orthogonalEdgeStyle;rounded=0;orthogonalLoop=1;jettySize=auto;html=1;entryX=0;entryY=0.5;entryDx=0;entryDy=0;" parent="RgCKEBAKFtgzlylaqKfK-1" source="PKVvTnGOIaKGjTeEUsdS-33" target="PKVvTnGOIaKGjTeEUsdS-32" edge="1">
                    <mxGeometry relative="1" as="geometry"/>
                </mxCell>
                <mxCell id="PKVvTnGOIaKGjTeEUsdS-33" value="Angular URL" style="dashed=0;outlineConnect=0;html=1;align=center;labelPosition=center;verticalLabelPosition=bottom;verticalAlign=top;shape=mxgraph.weblogos.chrome" parent="RgCKEBAKFtgzlylaqKfK-1" vertex="1">
                    <mxGeometry x="-180" y="1110" width="74.8" height="75.4" as="geometry"/>
                </mxCell>
                <mxCell id="XrsGzolcv_0SOZRtvJx6-0" value="[&#13;&#10;{&#13;&#10;&quot;id&quot;: 1,&#13;&#10;&quot;name&quot;: &quot;Ane&quot;,&#13;&#10;&quot;salary&quot;: 4000&#13;&#10;},&#13;&#10;{&#13;&#10;&quot;id&quot;: 2,&#13;&#10;&quot;name&quot;: &quot;Ana&quot;,&#13;&#10;&quot;salary&quot;: 3000&#13;&#10;}&#13;&#10;]" style="text;whiteSpace=wrap;html=1;fillColor=#e1d5e7;strokeColor=#9673a6;" vertex="1" parent="RgCKEBAKFtgzlylaqKfK-1">
                    <mxGeometry x="-670" y="1200" width="140" height="180" as="geometry"/>
                </mxCell>
                <mxCell id="XrsGzolcv_0SOZRtvJx6-4" value="" style="sketch=0;outlineConnect=0;fontColor=#232F3E;gradientColor=none;fillColor=#232F3E;strokeColor=none;dashed=0;verticalLabelPosition=bottom;verticalAlign=top;align=center;html=1;fontSize=12;fontStyle=0;aspect=fixed;pointerEvents=1;shape=mxgraph.aws4.gear;" vertex="1" parent="RgCKEBAKFtgzlylaqKfK-1">
                    <mxGeometry x="-649" y="1070" width="78" height="78" as="geometry"/>
                </mxCell>
            </root>
        </mxGraphModel>
    </diagram>
</mxfile>